<?xml version="1.0" encoding="UTF-8" standalone="no"?><!DOCTYPE svg PUBLIC "-//W3C//DTD SVG 1.1//EN" "http://www.w3.org/Graphics/SVG/1.1/DTD/svg11.dtd"><svg width="100%" height="100%" viewBox="0 0 4000 4000" version="1.1" xmlns="http://www.w3.org/2000/svg" xmlns:xlink="http://www.w3.org/1999/xlink" xml:space="preserve" xmlns:serif="http://www.serif.com/" style="fill-rule:evenodd;clip-rule:evenodd;stroke-linecap:round;stroke-linejoin:round;stroke-miterlimit:1.5;"><path d="M2000,200l-1558.85,900l0,1800l1558.85,900l1558.85,-900l-0,-1800l-1558.85,-900Z" style="fill:#fff;stroke:#545454;stroke-width:75px;"/><path d="M1364.38,932.455l-20.837,151.545l-151.545,-20.837l20.837,-151.545l151.545,20.837Z" style="fill:#ffa707;"/><g><path d="M1410.08,1103.29l204.702,271.472l-63.876,48.165l-204.702,-271.472l63.876,-48.165Z" style="fill:#009acb;stroke:#009acb;stroke-width:25px;"/><path d="M1231.7,1097.35l217.798,31.051l-11.291,79.199l-217.798,-31.05l11.291,-79.2Z" style="fill:#009acb;stroke:#009acb;stroke-width:25px;"/><path d="M1390.86,977.905l-31.05,217.798l79.199,11.291l31.05,-217.798l-79.199,-11.291Z" style="fill:#009acb;stroke:#009acb;stroke-width:25px;"/></g><path d="M2560,2624.89c-344.886,309.072 -875.816,279.997 -1184.89,-64.889c-309.072,-344.886 -279.997,-875.816 64.889,-1184.89c344.886,-309.072 875.816,-279.997 1184.89,64.889c309.072,344.886 279.997,875.816 -64.889,1184.89Z" style="fill:url(#_Radial1);stroke:#30748f;stroke-width:41.67px;"/><path d="M2060,2140c0,0 2.787,39.594 29.263,40c21.862,0.336 25.848,-40.103 50.737,-40c25.611,0.106 21.623,48.092 47.949,51.246c26.864,3.218 32.984,-27.912 52.051,-31.246c19.067,-3.333 43.218,17.283 60,33.254" style="fill:none;stroke:#35b857;stroke-width:25px;"/><ellipse cx="1990" cy="2190" rx="410" ry="250" style="fill:none;stroke:#30748f;stroke-width:25px;"/><path d="M1935,2217.5l75,-37.5l-75,-37.5l0,75Z"/><path d="M1950,2180l-60,0l0,100l-190,0l550,0" style="fill:none;stroke:#000;stroke-width:25px;"/><path d="M1804.84,1604.84c-33.115,33.115 -86.885,33.115 -120,0c-33.115,-33.115 -33.115,-86.885 0,-120c33.115,-33.115 86.885,-33.115 120,0c33.115,33.115 33.115,86.885 0,120Z" style="fill:#f8a3f3;"/><path d="M2080,1855.16c-33.115,33.115 -86.885,33.115 -120,-0c-33.115,-33.115 -33.115,-86.885 0,-120c33.115,-33.115 86.885,-33.115 120,-0c33.115,33.115 33.115,86.885 0,120Z" style="fill:#c3005d;"/><path d="M1840,2255.16c-33.115,33.115 -86.885,33.115 -120,-0c-33.115,-33.115 -33.115,-86.885 0,-120c33.115,-33.115 86.885,-33.115 120,-0c33.115,33.115 33.115,86.885 0,120Z" style="fill:#c3005d;"/><path d="M2640,2015.16c-33.115,33.115 -86.885,33.115 -120,-0c-33.115,-33.115 -33.115,-86.885 0,-120c33.115,-33.115 86.885,-33.115 120,-0c33.115,33.115 33.115,86.885 0,120Z" style="fill:#35b857;"/><path d="M3220,1915.16c-33.115,33.115 -86.885,33.115 -120,-0c-33.115,-33.115 -33.115,-86.885 0,-120c33.115,-33.115 86.885,-33.115 120,-0c33.115,33.115 33.115,86.885 0,120Z" style="fill:#35b857;"/><path d="M3384.84,1644.84c-33.115,33.115 -86.885,33.115 -120,0c-33.115,-33.115 -33.115,-86.885 0,-120c33.115,-33.115 86.885,-33.115 120,0c33.115,33.115 33.115,86.885 0,120Z" style="fill:#35b857;"/><path d="M3024.84,1600c-33.115,33.115 -86.885,33.115 -120,-0c-33.115,-33.115 -33.115,-86.885 0,-120c33.115,-33.115 86.885,-33.115 120,-0c33.115,33.115 33.115,86.885 0,120Z" style="fill:#35b857;"/><path d="M1633.48,1380.45l26.517,79.55l-79.55,-26.517l53.033,-53.033Z" style="fill:#f8a3f3;"/><path d="M1560,1360c0,0 53.019,53.019 57.574,57.574" style="fill:none;stroke:#f8a3f3;stroke-width:25px;"/><path d="M1916.36,1641.38l29.144,78.625l-80.386,-23.859l51.242,-54.766Z" style="fill:#f8a3f3;"/><path d="M1840,1621.29c0,-0 32.699,30.595 61.689,57.719" style="fill:none;stroke:#f8a3f3;stroke-width:25px;"/><g><path d="M1960,1900l-140,190" style="fill:none;"/><path d="M1894.68,2051.87l-74.68,38.134l14.3,-82.624l60.38,44.49Z" style="fill:#c3005d;"/><path d="M1960,1900c0,-0 -62.931,85.406 -104.408,141.697" style="fill:none;stroke:#c3005d;stroke-width:25px;"/></g><path d="M2411.37,2024.6l83.723,-4.652l-46.513,69.77l-37.21,-65.118Z" style="fill:#35b857;"/><path d="M2320,2120c-0,0 71.385,-40.792 122.994,-70.282" style="fill:none;stroke:#35b857;stroke-width:25px;"/><path d="M2956.17,1721.95l83.83,-1.95l-48.738,68.234l-35.092,-66.284Z" style="fill:#35b857;"/><path d="M2700,1900c-0,-0 191.38,-101.319 286.973,-151.927" style="fill:none;stroke:#35b857;stroke-width:25px;"/><rect x="1083.15" y="2910.72" width="57.567" height="261.8" style="fill:#545454;fill-rule:nonzero;"/><path d="M1185.82,2982.95l-0,189.567l52.066,-0l0,-99.367c0,-19.311 3.178,-33.183 9.534,-41.617c6.355,-8.433 16.622,-12.65 30.8,-12.65c12.466,0 21.144,3.85 26.033,11.55c4.889,7.7 7.333,19.373 7.333,35.017l0,107.067l52.067,-0l0,-116.6c0,-11.734 -1.039,-22.428 -3.117,-32.084c-2.077,-9.655 -5.683,-17.844 -10.816,-24.566c-5.134,-6.723 -12.161,-11.978 -21.084,-15.767c-8.922,-3.789 -20.35,-5.683 -34.283,-5.683c-11,-0 -21.756,2.505 -32.267,7.516c-10.511,5.011 -19.066,13.017 -25.666,24.017l-1.1,-0l-0,-26.4l-49.5,-0Z" style="fill:#545454;fill-rule:nonzero;"/><path d="M1469.25,2982.95l0,-56.833l-52.067,-0l0,56.833l-31.533,-0l0,34.833l31.533,0l0,111.834c0,9.533 1.589,17.233 4.767,23.1c3.178,5.866 7.517,10.389 13.017,13.566c5.5,3.178 11.855,5.317 19.066,6.417c7.211,1.1 14.85,1.65 22.917,1.65c5.133,0 10.389,-0.122 15.767,-0.367c5.377,-0.244 10.266,-0.733 14.666,-1.466l0,-40.334c-2.444,0.489 -5.011,0.856 -7.7,1.1c-2.689,0.245 -5.5,0.367 -8.433,0.367c-8.8,-0 -14.667,-1.467 -17.6,-4.4c-2.933,-2.933 -4.4,-8.8 -4.4,-17.6l0,-93.867l38.133,0l0,-34.833l-38.133,0Z" style="fill:#545454;fill-rule:nonzero;"/><path d="M1532.32,2982.95l-0,189.567l52.066,-0l0,-85.434c0,-8.555 0.856,-16.5 2.567,-23.833c1.711,-7.333 4.583,-13.75 8.617,-19.25c4.033,-5.5 9.35,-9.839 15.95,-13.017c6.6,-3.177 14.666,-4.766 24.2,-4.766c3.177,-0 6.477,0.183 9.9,0.55c3.422,0.366 6.355,0.794 8.8,1.283l-0,-48.4c-4.156,-1.222 -7.945,-1.833 -11.367,-1.833c-6.6,-0 -12.956,0.977 -19.067,2.933c-6.111,1.956 -11.855,4.706 -17.233,8.25c-5.378,3.544 -10.144,7.822 -14.3,12.833c-4.156,5.011 -7.456,10.45 -9.9,16.317l-0.733,-0l-0,-35.2l-49.5,-0Z" style="fill:#545454;fill-rule:nonzero;"/><path d="M1672.75,3041.25c0.733,-12.222 3.789,-22.367 9.167,-30.433c5.377,-8.067 12.222,-14.545 20.533,-19.434c8.311,-4.889 17.661,-8.372 28.05,-10.45c10.389,-2.077 20.839,-3.116 31.35,-3.116c9.533,-0 19.189,0.672 28.967,2.016c9.777,1.345 18.7,3.973 26.766,7.884c8.067,3.911 14.667,9.35 19.8,16.316c5.134,6.967 7.7,16.195 7.7,27.684l0,98.633c0,8.556 0.489,16.744 1.467,24.567c0.978,7.822 2.689,13.689 5.133,17.6l-52.8,-0c-0.977,-2.934 -1.772,-5.928 -2.383,-8.984c-0.611,-3.055 -1.039,-6.172 -1.283,-9.35c-8.311,8.556 -18.089,14.545 -29.334,17.967c-11.244,3.422 -22.733,5.133 -34.466,5.133c-9.045,0 -17.478,-1.1 -25.3,-3.3c-7.823,-2.2 -14.667,-5.622 -20.534,-10.266c-5.866,-4.645 -10.45,-10.511 -13.75,-17.6c-3.3,-7.089 -4.95,-15.523 -4.95,-25.3c0,-10.756 1.895,-19.617 5.684,-26.584c3.789,-6.966 8.677,-12.527 14.666,-16.683c5.989,-4.156 12.834,-7.272 20.534,-9.35c7.7,-2.078 15.461,-3.728 23.283,-4.95c7.822,-1.222 15.522,-2.2 23.1,-2.933c7.578,-0.734 14.3,-1.834 20.167,-3.3c5.866,-1.467 10.511,-3.606 13.933,-6.417c3.422,-2.811 5.011,-6.906 4.767,-12.283c-0,-5.623 -0.917,-10.084 -2.75,-13.384c-1.834,-3.3 -4.278,-5.866 -7.334,-7.7c-3.055,-1.833 -6.6,-3.055 -10.633,-3.666c-4.033,-0.611 -8.372,-0.917 -13.017,-0.917c-10.266,-0 -18.333,2.2 -24.2,6.6c-5.866,4.4 -9.289,11.733 -10.266,22l-52.067,0Zm120.267,38.5c-2.2,1.956 -4.95,3.483 -8.25,4.583c-3.3,1.1 -6.845,2.017 -10.634,2.75c-3.789,0.734 -7.761,1.345 -11.916,1.834c-4.156,0.489 -8.311,1.1 -12.467,1.833c-3.911,0.733 -7.761,1.711 -11.55,2.933c-3.789,1.223 -7.089,2.873 -9.9,4.95c-2.811,2.078 -5.072,4.706 -6.783,7.884c-1.711,3.177 -2.567,7.211 -2.567,12.1c0,4.644 0.856,8.555 2.567,11.733c1.711,3.178 4.033,5.683 6.966,7.517c2.934,1.833 6.356,3.116 10.267,3.85c3.911,0.733 7.944,1.1 12.1,1.1c10.267,-0 18.211,-1.711 23.833,-5.134c5.623,-3.422 9.778,-7.516 12.467,-12.283c2.689,-4.767 4.339,-9.594 4.95,-14.483c0.611,-4.889 0.917,-8.8 0.917,-11.734l-0,-19.433Z" style="fill:#545454;fill-rule:nonzero;"/><path d="M1948.85,2959.12l0,213.4l57.567,-0l-0,-213.4l78.466,-0l0,-48.4l-214.5,-0l0,48.4l78.467,-0Z" style="fill:#545454;fill-rule:nonzero;"/><path d="M2066.55,3041.25c0.733,-12.222 3.789,-22.367 9.167,-30.433c5.377,-8.067 12.222,-14.545 20.533,-19.434c8.311,-4.889 17.661,-8.372 28.05,-10.45c10.389,-2.077 20.839,-3.116 31.35,-3.116c9.533,-0 19.189,0.672 28.967,2.016c9.777,1.345 18.7,3.973 26.766,7.884c8.067,3.911 14.667,9.35 19.8,16.316c5.134,6.967 7.7,16.195 7.7,27.684l0,98.633c0,8.556 0.489,16.744 1.467,24.567c0.978,7.822 2.689,13.689 5.133,17.6l-52.8,-0c-0.977,-2.934 -1.772,-5.928 -2.383,-8.984c-0.611,-3.055 -1.039,-6.172 -1.283,-9.35c-8.311,8.556 -18.089,14.545 -29.334,17.967c-11.244,3.422 -22.733,5.133 -34.466,5.133c-9.045,0 -17.478,-1.1 -25.3,-3.3c-7.823,-2.2 -14.667,-5.622 -20.534,-10.266c-5.866,-4.645 -10.45,-10.511 -13.75,-17.6c-3.3,-7.089 -4.95,-15.523 -4.95,-25.3c0,-10.756 1.895,-19.617 5.684,-26.584c3.789,-6.966 8.677,-12.527 14.666,-16.683c5.989,-4.156 12.834,-7.272 20.534,-9.35c7.7,-2.078 15.461,-3.728 23.283,-4.95c7.822,-1.222 15.522,-2.2 23.1,-2.933c7.578,-0.734 14.3,-1.834 20.167,-3.3c5.866,-1.467 10.511,-3.606 13.933,-6.417c3.422,-2.811 5.011,-6.906 4.767,-12.283c-0,-5.623 -0.917,-10.084 -2.75,-13.384c-1.834,-3.3 -4.278,-5.866 -7.334,-7.7c-3.055,-1.833 -6.6,-3.055 -10.633,-3.666c-4.033,-0.611 -8.372,-0.917 -13.017,-0.917c-10.266,-0 -18.333,2.2 -24.2,6.6c-5.866,4.4 -9.289,11.733 -10.266,22l-52.067,0Zm120.267,38.5c-2.2,1.956 -4.95,3.483 -8.25,4.583c-3.3,1.1 -6.845,2.017 -10.634,2.75c-3.789,0.734 -7.761,1.345 -11.916,1.834c-4.156,0.489 -8.311,1.1 -12.467,1.833c-3.911,0.733 -7.761,1.711 -11.55,2.933c-3.789,1.223 -7.089,2.873 -9.9,4.95c-2.811,2.078 -5.072,4.706 -6.783,7.884c-1.711,3.177 -2.567,7.211 -2.567,12.1c0,4.644 0.856,8.555 2.567,11.733c1.711,3.178 4.033,5.683 6.966,7.517c2.934,1.833 6.356,3.116 10.267,3.85c3.911,0.733 7.944,1.1 12.1,1.1c10.267,-0 18.211,-1.711 23.833,-5.134c5.623,-3.422 9.778,-7.516 12.467,-12.283c2.689,-4.767 4.339,-9.594 4.95,-14.483c0.611,-4.889 0.917,-8.8 0.917,-11.734l-0,-19.433Z" style="fill:#545454;fill-rule:nonzero;"/><rect x="2280.68" y="2910.72" width="52.067" height="261.8" style="fill:#545454;fill-rule:nonzero;"/><path d="M2378.58,2910.72l0,261.8l52.067,-0l0,-65.267l20.167,-19.433l52.066,84.7l63.067,-0l-79.567,-119.9l71.5,-69.667l-61.6,-0l-65.633,68.2l0,-140.433l-52.067,-0Z" style="fill:#545454;fill-rule:nonzero;"/><path d="M2711.88,3057.38l-84.7,0c0.245,-3.666 1.039,-7.822 2.384,-12.466c1.344,-4.645 3.666,-9.045 6.966,-13.2c3.3,-4.156 7.7,-7.639 13.2,-10.45c5.5,-2.811 12.406,-4.217 20.717,-4.217c12.711,-0 22.183,3.422 28.417,10.267c6.233,6.844 10.572,16.866 13.016,30.066Zm-84.7,33l136.767,0c0.978,-14.666 -0.244,-28.722 -3.667,-42.166c-3.422,-13.445 -8.983,-25.423 -16.683,-35.934c-7.7,-10.511 -17.539,-18.883 -29.517,-25.116c-11.977,-6.234 -26.033,-9.35 -42.166,-9.35c-14.423,-0 -27.561,2.566 -39.417,7.7c-11.856,5.133 -22.061,12.161 -30.617,21.083c-8.555,8.922 -15.155,19.494 -19.8,31.717c-4.644,12.222 -6.966,25.422 -6.966,39.6c-0,14.666 2.261,28.111 6.783,40.333c4.522,12.222 10.939,22.733 19.25,31.533c8.311,8.8 18.456,15.584 30.433,20.35c11.978,4.767 25.423,7.15 40.334,7.15c21.511,0 39.844,-4.889 55,-14.666c15.155,-9.778 26.4,-26.034 33.733,-48.767l-45.833,0c-1.711,5.867 -6.356,11.428 -13.934,16.683c-7.577,5.256 -16.622,7.884 -27.133,7.884c-14.667,-0 -25.911,-3.789 -33.733,-11.367c-7.823,-7.578 -12.1,-19.8 -12.834,-36.667Z" style="fill:#545454;fill-rule:nonzero;"/><path d="M2794.75,2982.95l0,189.567l52.067,-0l-0,-85.434c-0,-8.555 0.855,-16.5 2.566,-23.833c1.711,-7.333 4.584,-13.75 8.617,-19.25c4.033,-5.5 9.35,-9.839 15.95,-13.017c6.6,-3.177 14.667,-4.766 24.2,-4.766c3.178,-0 6.478,0.183 9.9,0.55c3.422,0.366 6.356,0.794 8.8,1.283l0,-48.4c-4.156,-1.222 -7.944,-1.833 -11.367,-1.833c-6.6,-0 -12.955,0.977 -19.066,2.933c-6.111,1.956 -11.856,4.706 -17.234,8.25c-5.377,3.544 -10.144,7.822 -14.3,12.833c-4.155,5.011 -7.455,10.45 -9.9,16.317l-0.733,-0l0,-35.2l-49.5,-0Z" style="fill:#545454;fill-rule:nonzero;"/><defs><radialGradient id="_Radial1" cx="0" cy="0" r="1" gradientUnits="userSpaceOnUse" gradientTransform="matrix(-624.889,560,-560,-624.889,2000,2000)"><stop offset="0" style="stop-color:#b2e9ff;stop-opacity:1"/><stop offset="0.65" style="stop-color:#9ee3ff;stop-opacity:1"/><stop offset="1" style="stop-color:#28c1ff;stop-opacity:1"/></radialGradient></defs></svg>